<?xml version="1.0" ?><!DOCTYPE svg  PUBLIC '-//W3C//DTD SVG 1.1//EN'  'http://www.w3.org/Graphics/SVG/1.1/DTD/svg11.dtd'><svg enable-background="new 0 0 128 128" id="Layer_1" version="1.1" viewBox="0 0 128 128" xml:space="preserve" xmlns="http://www.w3.org/2000/svg" xmlns:xlink="http://www.w3.org/1999/xlink"><path d="M89,102.6c0,4.1-3.3,7.4-7.4,7.4H37.4c-4.1,0-7.4-3.3-7.4-7.4V21.4c0-4.1,3.3-7.4,7.4-7.4h44.1  c4.1,0,7.4,3.3,7.4,7.4V102.6z" fill="#DD3B86"/><path d="M89,102.6  c0,4.1-3.3,7.4-7.4,7.4H37.4c-4.1,0-7.4-3.3-7.4-7.4V21.4c0-4.1,3.3-7.4,7.4-7.4h44.1c4.1,0,7.4,3.3,7.4,7.4V102.6z" fill="none" stroke="#3D3D3D" stroke-linejoin="round" stroke-miterlimit="10" stroke-width="2"/><path d="M93,102.6c0,4.1-3.3,7.4-7.4,7.4H41.4c-4.1,0-7.4-3.3-7.4-7.4V21.4c0-4.1,3.3-7.4,7.4-7.4h44.1  c4.1,0,7.4,3.3,7.4,7.4V102.6z" fill="#E875AE"/><path d="M93,102.6  c0,4.1-3.3,7.4-7.4,7.4H41.4c-4.1,0-7.4-3.3-7.4-7.4V21.4c0-4.1,3.3-7.4,7.4-7.4h44.1c4.1,0,7.4,3.3,7.4,7.4V102.6z" fill="none" stroke="#3D3D3D" stroke-linejoin="round" stroke-miterlimit="10" stroke-width="2"/><rect fill="#FFFFFF" height="62" width="44" x="42" y="32"/><rect fill="none" height="62" stroke="#3D3D3D" stroke-linejoin="round" stroke-miterlimit="10" stroke-width="2" width="44" x="42" y="32"/><line fill="none" stroke="#3D3D3D" stroke-linejoin="round" stroke-miterlimit="10" stroke-width="2" x1="55" x2="74" y1="25" y2="25"/><circle cx="64.3" cy="102.2" fill="#3D3D3D" r="3.3"/></svg>