<?xml version="1.0" ?><svg style="enable-background:new 0 0 64 64;" version="1.1" viewBox="0 0 64 64" xml:space="preserve" xmlns="http://www.w3.org/2000/svg" xmlns:xlink="http://www.w3.org/1999/xlink"><style type="text/css">
	.st0{fill:#0072FF;}
</style><g id="GUIDES_64"/><g id="Layer_3"/><g id="Layer_2"><path class="st0" d="M31.1,38.5l-6.5,18.8c-0.3,0.9,0.2,1.8,1.1,2c2,0.5,4.1,0.7,6.3,0.7c2.7,0,5.3-0.4,7.8-1.1   c0.8-0.2,1.3-1.1,1-1.9L34,38.5C33.5,37.1,31.6,37.1,31.1,38.5z"/><path class="st0" d="M5,24.7C4.3,27,4,29.5,4,32c0,10.2,5.4,19.1,13.5,24c0.8,0.5,1.7-0.3,1.4-1.2l-11-30.3   C7.4,23.2,5.4,23.3,5,24.7z"/><path class="st0" d="M50.5,11.3c0.1,0,0.2,0,0.4,0C45.9,6.8,39.3,4,32,4C22.2,4,13.6,9,8.6,16.6c0.7,0,1.3,0,1.8,0   c2.9,0,7.5-0.4,7.5-0.4c1.5-0.1,1.7,2.1,0.2,2.3c0,0-0.1,0-0.2,0c-1.5,0.2-2.5,1.7-2,3.1l7.8,23.2c0.5,1.4,2.4,1.4,2.9,0l3.7-11.1   c0.7-2,0.6-4.1-0.1-6l-2.2-6c-0.6-1.7-2.2-2.9-4-3.2l0,0c-1.5-0.1-1.3-2.4,0.2-2.3c0,0,4.6,0.4,7.4,0.4c2.9,0,7.5-0.4,7.5-0.4   c1.5-0.1,1.7,2.1,0.2,2.3l0,0c-1.6,0.2-2.7,1.8-2.2,3.4l7.5,22.4c0.5,1.4,2.5,1.4,2.9,0l1.4-4.8c1.2-3.9,2.1-6.7,2.1-9.1   c0-3.5-1.2-5.9-2.3-7.7c-1.4-2.3-2.8-4.3-2.8-6.6C45.8,13.7,47.8,11.3,50.5,11.3z"/><path class="st0" d="M56.8,21.4c0,2.8-0.5,6-2.1,10L46.8,54c-0.3,0.7,0.6,1.4,1.2,0.9C55.3,49.8,60,41.5,60,32   c0-4.9-1.2-9.4-3.4-13.4C56.7,19.5,56.8,20.4,56.8,21.4z"/></g></svg>